<mxfile host="Electron" agent="Mozilla/5.0 (X11; Linux x86_64) AppleWebKit/537.36 (KHTML, like Gecko) draw.io/26.0.16 Chrome/132.0.6834.196 Electron/34.2.0 Safari/537.36" version="26.0.16">
  <diagram name="Page-1" id="OkNnp4ZikiLAbiJxPSVS">
    <mxGraphModel dx="1434" dy="839" grid="1" gridSize="10" guides="1" tooltips="1" connect="1" arrows="1" fold="1" page="1" pageScale="1" pageWidth="1100" pageHeight="850" math="0" shadow="0">
      <root>
        <mxCell id="0" />
        <mxCell id="1" parent="0" />
        <mxCell id="6-Zd3hag-RVSk_g32DTd-28" value="&lt;font style=&quot;font-size: 25px;&quot;&gt;&lt;b&gt;Docker network&lt;/b&gt;&lt;/font&gt;" style="rounded=1;whiteSpace=wrap;html=1;fillColor=#647687;strokeColor=#314354;fontColor=#ffffff;verticalAlign=top;" vertex="1" parent="1">
          <mxGeometry x="30" y="120" width="690" height="590" as="geometry" />
        </mxCell>
        <mxCell id="9Ca5nki053vE-qPJW3u6-1" value="ESP32 Gateway" style="ellipse;whiteSpace=wrap;html=1;fillStyle=dots;dashed=1;dashPattern=1 4;strokeWidth=2;fontSize=18;labelPosition=center;verticalLabelPosition=middle;align=center;verticalAlign=top;spacing=14;" parent="1" vertex="1">
          <mxGeometry x="820" y="410" width="230" height="220" as="geometry" />
        </mxCell>
        <mxCell id="9Ca5nki053vE-qPJW3u6-2" value="" style="shape=mxgraph.arrows2.wedgeArrowDashed2;html=1;bendable=0;startWidth=98.75;stepSize=15;rounded=0;entryX=0.041;entryY=0.491;entryDx=0;entryDy=0;entryPerimeter=0;fillColor=#f0a30a;strokeColor=#BD7000;" parent="1" target="9Ca5nki053vE-qPJW3u6-1" edge="1">
          <mxGeometry width="100" height="100" relative="1" as="geometry">
            <mxPoint x="730" y="518" as="sourcePoint" />
            <mxPoint x="720" y="550" as="targetPoint" />
          </mxGeometry>
        </mxCell>
        <mxCell id="9Ca5nki053vE-qPJW3u6-3" value="" style="sketch=0;outlineConnect=0;fontColor=#232F3E;gradientColor=none;strokeColor=#232F3E;fillColor=#ffffff;dashed=0;verticalLabelPosition=bottom;verticalAlign=top;align=center;html=1;fontSize=12;fontStyle=0;aspect=fixed;shape=mxgraph.aws4.resourceIcon;resIcon=mxgraph.aws4.mqtt_protocol;" parent="1" vertex="1">
          <mxGeometry x="886.25" y="492.5" width="110" height="110" as="geometry" />
        </mxCell>
        <mxCell id="9Ca5nki053vE-qPJW3u6-4" value="Wifi +&amp;nbsp;&lt;div&gt;Display +&lt;/div&gt;" style="text;html=1;align=center;verticalAlign=middle;whiteSpace=wrap;rounded=0;fontSize=14;fontColor=#08081D;" parent="1" vertex="1">
          <mxGeometry x="892.5" y="500" width="97.5" height="60" as="geometry" />
        </mxCell>
        <mxCell id="9Ca5nki053vE-qPJW3u6-7" value="MQTT Broker: Mosquitto" style="text;html=1;align=center;verticalAlign=middle;whiteSpace=wrap;rounded=1;fontSize=16;fontColor=#ffffff;strokeColor=#314354;fillColor=#647687;" parent="1" vertex="1">
          <mxGeometry x="590" y="442.5" width="109.5" height="57.5" as="geometry" />
        </mxCell>
        <mxCell id="9Ca5nki053vE-qPJW3u6-9" value="subscribed&lt;span style=&quot;font-weight: normal;&quot;&gt; &#39;readings/gateway&#39;&lt;/span&gt;" style="text;html=1;align=center;verticalAlign=middle;whiteSpace=wrap;rounded=1;fontSize=15;fontColor=#08081D;labelBackgroundColor=#FFFFFF;fontStyle=1;fillColor=#FFFFFF;" parent="1" vertex="1">
          <mxGeometry x="445" y="352.5" width="190" height="57.5" as="geometry" />
        </mxCell>
        <mxCell id="6-Zd3hag-RVSk_g32DTd-6" style="edgeStyle=orthogonalEdgeStyle;rounded=0;orthogonalLoop=1;jettySize=auto;html=1;exitX=0;exitY=0;exitDx=30;exitDy=31.5;exitPerimeter=0;" edge="1" parent="1" source="9Ca5nki053vE-qPJW3u6-11">
          <mxGeometry relative="1" as="geometry">
            <mxPoint x="550" y="540" as="targetPoint" />
          </mxGeometry>
        </mxCell>
        <mxCell id="9Ca5nki053vE-qPJW3u6-11" value="" style="html=1;shadow=0;dashed=0;align=center;verticalAlign=middle;shape=mxgraph.arrows2.arrow;dy=0.6;dx=40;flipH=1;notch=0;fillColor=#f0a30a;fontColor=#000000;strokeColor=#BD7000;" parent="1" vertex="1">
          <mxGeometry x="480" y="455" width="100" height="45" as="geometry" />
        </mxCell>
        <mxCell id="9Ca5nki053vE-qPJW3u6-12" value="publish&lt;span style=&quot;font-weight: normal;&quot;&gt; &#39;readings/#/MAC&#39;&lt;/span&gt;" style="text;html=1;align=center;verticalAlign=middle;whiteSpace=wrap;rounded=1;fontSize=15;fontColor=#08081D;labelBackgroundColor=#FFFFFF;fontStyle=1;shadow=0;fillColor=#FFFFFF;rotation=20;" parent="1" vertex="1">
          <mxGeometry x="720" y="357.5" width="120" height="85" as="geometry" />
        </mxCell>
        <mxCell id="9Ca5nki053vE-qPJW3u6-13" value="SQLite&lt;div&gt;Database&lt;/div&gt;" style="text;html=1;align=center;verticalAlign=middle;whiteSpace=wrap;rounded=1;fontSize=15;fontColor=#08081D;labelBackgroundColor=#FFFFFF;fontStyle=1;fillColor=#FFFFFF;shadow=0;" parent="1" vertex="1">
          <mxGeometry x="72.5" y="573.25" width="120" height="41" as="geometry" />
        </mxCell>
        <mxCell id="9Ca5nki053vE-qPJW3u6-16" value="Flask Server + MQTT Client (Python)" style="text;html=1;align=center;verticalAlign=middle;whiteSpace=wrap;rounded=1;fontSize=15;fontColor=#08081D;labelBackgroundColor=#FFFFFF;fontStyle=1;shadow=0;fillColor=#FFFFFF;" parent="1" vertex="1">
          <mxGeometry x="330" y="558.75" width="109" height="70" as="geometry" />
        </mxCell>
        <mxCell id="9Ca5nki053vE-qPJW3u6-18" value="INSERT payload INTO temperature" style="text;html=1;align=center;verticalAlign=middle;whiteSpace=wrap;rounded=1;fontSize=14;fontColor=#08081D;labelBackgroundColor=#FFFFFF;fontStyle=1;fillColor=#FFFFFF;fontFamily=Hack;" parent="1" vertex="1">
          <mxGeometry x="180" y="425" width="122.5" height="70" as="geometry" />
        </mxCell>
        <mxCell id="9Ca5nki053vE-qPJW3u6-22" value="" style="image;aspect=fixed;html=1;points=[];align=center;fontSize=12;image=img/lib/azure2/general/Dashboard2.svg;" parent="1" vertex="1">
          <mxGeometry x="310" y="340" width="88.54" height="62.5" as="geometry" />
        </mxCell>
        <mxCell id="9Ca5nki053vE-qPJW3u6-24" value="SELECT *&lt;div&gt;FROM mqtt_message WHERE&amp;nbsp;&lt;/div&gt;&lt;div&gt;id = &#39;222&#39;&lt;/div&gt;" style="text;html=1;align=left;verticalAlign=middle;whiteSpace=wrap;rounded=1;fontSize=13;fontColor=#08081D;labelBackgroundColor=#FFFFFF;fontStyle=1;fillColor=#FFFFFF;fontFamily=Hack;" parent="1" vertex="1">
          <mxGeometry x="180" y="230" width="100" height="90" as="geometry" />
        </mxCell>
        <mxCell id="6-Zd3hag-RVSk_g32DTd-1" value="" style="outlineConnect=0;dashed=0;verticalLabelPosition=bottom;verticalAlign=top;align=center;html=1;shape=mxgraph.aws3.mqtt_protocol;fillColor=#5294CF;gradientColor=none;" vertex="1" parent="1">
          <mxGeometry x="613.25" y="514" width="63" height="66" as="geometry" />
        </mxCell>
        <mxCell id="6-Zd3hag-RVSk_g32DTd-2" value="" style="verticalLabelPosition=bottom;html=1;verticalAlign=top;align=center;strokeColor=none;fillColor=#00BEF2;shape=mxgraph.azure.sql_database;" vertex="1" parent="1">
          <mxGeometry x="98.76" y="480" width="61.25" height="70" as="geometry" />
        </mxCell>
        <mxCell id="6-Zd3hag-RVSk_g32DTd-4" value="" style="image;points=[];aspect=fixed;html=1;align=center;shadow=0;dashed=0;image=img/lib/allied_telesis/storage/Datacenter_Server_Rack_EoR.svg;" vertex="1" parent="1">
          <mxGeometry x="379.73" y="410" width="69.27" height="140" as="geometry" />
        </mxCell>
        <mxCell id="6-Zd3hag-RVSk_g32DTd-5" value="" style="verticalLabelPosition=bottom;html=1;verticalAlign=top;align=center;strokeColor=none;fillColor=#00BEF2;shape=mxgraph.azure.computer;pointerEvents=1;" vertex="1" parent="1">
          <mxGeometry x="322.5" y="447.5" width="50" height="45" as="geometry" />
        </mxCell>
        <mxCell id="6-Zd3hag-RVSk_g32DTd-10" value="" style="html=1;shadow=0;dashed=0;align=center;verticalAlign=middle;shape=mxgraph.arrows2.arrow;dy=0.6;dx=40;flipH=1;notch=0;fillColor=#f0a30a;fontColor=#000000;strokeColor=#BD7000;rotation=-180;" vertex="1" parent="1">
          <mxGeometry x="490" y="515" width="100" height="45" as="geometry" />
        </mxCell>
        <mxCell id="6-Zd3hag-RVSk_g32DTd-11" value="publish&lt;span style=&quot;font-weight: normal;&quot;&gt;&amp;nbsp;&lt;/span&gt;&lt;div&gt;&lt;span style=&quot;font-weight: normal;&quot;&gt;&#39;readings/temperrature&#39;&lt;/span&gt;&lt;/div&gt;" style="text;html=1;align=center;verticalAlign=middle;whiteSpace=wrap;rounded=1;fontSize=15;fontColor=#08081D;labelBackgroundColor=#FFFFFF;fontStyle=1;fillColor=#FFFFFF;" vertex="1" parent="1">
          <mxGeometry x="462.5" y="591.25" width="155" height="37.5" as="geometry" />
        </mxCell>
        <mxCell id="6-Zd3hag-RVSk_g32DTd-14" value="" style="html=1;shadow=0;dashed=0;align=center;verticalAlign=middle;shape=mxgraph.arrows2.arrow;dy=0.6;dx=40;flipH=1;notch=0;fillColor=#f0a30a;fontColor=#000000;strokeColor=#BD7000;" vertex="1" parent="1">
          <mxGeometry x="197.5" y="517.5" width="100" height="45" as="geometry" />
        </mxCell>
        <mxCell id="6-Zd3hag-RVSk_g32DTd-15" value="" style="html=1;shadow=0;dashed=0;align=center;verticalAlign=middle;shape=mxgraph.arrows2.uTurnArrow;dy=11;arrowHead=43;dx2=25;rotation=90;fillColor=#FF9933;strokeColor=#d79b00;" vertex="1" parent="1">
          <mxGeometry x="100.63" y="211.88" width="281.25" height="237.5" as="geometry" />
        </mxCell>
      </root>
    </mxGraphModel>
  </diagram>
</mxfile>
